<svg id="Layer_1" data-name="Layer 1" xmlns="http://www.w3.org/2000/svg" viewBox="0 0 731.62 215.49"><defs><style>.cls-1{fill:#fff;}</style></defs><path class="cls-1" d="M166.34,174.83H20c-8.89,0-12.09-11.73-4.43-16.25l40.19-23.69a8.15,8.15,0,0,1,8.5.08l24.77,16.08a8.17,8.17,0,0,0,8.68,0l24.73-16a8.16,8.16,0,0,1,8.59-.09l39.75,23.65C178.43,163.14,175.21,174.83,166.34,174.83Z"/><path class="cls-1" d="M88.38,7.51V7a6.89,6.89,0,0,0-13-3.42L2.84,137.09.75,141.31a6.89,6.89,0,0,0,9.93,8.84l40.53-24.61a6.88,6.88,0,0,0,3.15-5.77l.08-33.46a6.91,6.91,0,0,1,3.28-5.85L85,64.23a6.89,6.89,0,0,0,3.28-5.85Z"/><path class="cls-1" d="M98.38,7.51V7a6.89,6.89,0,0,1,12.94-3.42l72.6,133.48,2.09,4.22a6.89,6.89,0,0,1-9.92,8.84l-40.54-24.61a6.91,6.91,0,0,1-3.15-5.77l-.08-33.46A6.89,6.89,0,0,0,129,80.46L101.77,64.23a6.91,6.91,0,0,1-3.28-5.85Z"/><path class="cls-1" d="M731.39,115.47a7,7,0,0,1-7,6.45c-15.36,0-31,0-46.88,0H633.66l1.29,3.85c1.4,4.19,2.67,7.21,5,10.2,5.42,7.33,11.48,11.57,19.57,13.69a56.87,56.87,0,0,0,14.26,2A41.13,41.13,0,0,0,694.9,146a49,49,0,0,0,6.66-4.94c.48-.4,1-.8,1.46-1.2L724.21,152a53,53,0,0,1-9.27,9.57c-10.28,8.37-22.44,12.8-37.17,13.53-1.67.09-3.35.13-5,.13-14.36,0-26.51-3.23-37.12-9.86-18-11.22-27.6-28.21-28.69-50.5-1-20.09,5.25-36.86,18.53-49.81C637.38,53.5,652.34,47.63,670,47.63c1.75,0,3.55.06,5.36.17,30.66,1.92,53.75,25.41,56.14,57.12A80.09,80.09,0,0,1,731.39,115.47Zm-60.81-44.4c-15.35,0-32.28,8.61-35.48,27.84l-.56,3.4h70.61L704.67,99C702.38,83.07,689,71.6,672.08,71.09,671.58,71.07,671.08,71.07,670.58,71.07Z"/><path class="cls-1" d="M265.75,175.23a94.12,94.12,0,0,1-11.41-.74c-11.49-1.43-20.86-5.48-28.65-12.4a44.06,44.06,0,0,1-10-12.86l23-12.91c4.5,9.31,12.62,14.49,23.61,15,1.46.07,2.66.11,3.75.11a37.66,37.66,0,0,0,9.33-1.08l.16,0,.15-.06c6.23-2.29,9.18-5.88,9.59-11.65.33-4.81-2.24-8.83-7.07-11a110.68,110.68,0,0,0-13.1-5c-2-.61-4-1.2-6-1.78-7.65-2.24-14.88-4.36-21.64-8-8.91-4.78-14-10.64-16.16-18.45-4.51-16.66,2.14-32.19,17.36-40.53a55.86,55.86,0,0,1,26.42-6.3c9.29,0,26.76,2.18,39.44,16.73C306.08,66,307.48,67.94,309,70l.27.37L286.61,82.67c-.67-1-1.33-2-2.1-3a24.87,24.87,0,0,0-19.37-9A23.64,23.64,0,0,0,255,73c-5.63,2.7-7.08,7-7.31,10.22A10.56,10.56,0,0,0,254.31,94a142.79,142.79,0,0,0,15.76,5.74c1.45.44,2.9.86,4.36,1.28,7.28,2.13,14.17,4.14,20.65,7.52,12.16,6.36,18,16,17.82,29.56-.16,13.89-6.18,23.83-18.38,30.39C286,173,276.6,175.23,265.75,175.23Z"/><rect class="cls-1" x="434.14" y="97.75" width="121.04" height="26.6" transform="translate(605.71 -383.62) rotate(90)"/><path class="cls-1" d="M362.2,64.61c8.71-10,23.23-16.5,38-17,.64,0,1.26,0,1.9,0,24.4,0,45.18,14.35,54.21,37.45,9.4,24,6.67,46.55-8.12,67a56.8,56.8,0,0,1-46,23.27h0a55,55,0,0,1-21.66-4.39,41.15,41.15,0,0,1-14.14-10.13c-.31-.34-1.29-1.34-2.32-2.39l-5.71-5.85v62.93h-26.6V57.75A7.25,7.25,0,0,1,339,50.52h19.37v18Zm34,8.26c-21.29,0-37.05,16-37.47,38-.2,10.81,3.42,20.68,10.21,27.79s16.44,11.15,27.16,11.35H397c21.47,0,37.34-15.87,37.74-37.74.2-11-3.43-20.92-10.23-28S407.92,73.07,397,72.87Z"/><circle class="cls-1" cx="494.52" cy="13.74" r="13.15"/><path class="cls-1" d="M555.55,69.76V50.52H529v121h19.37a7.25,7.25,0,0,0,7.23-7.23V118.75c.06-1.68.09-3,.09-4.32,0-8.21,1.73-14.91,5.34-20.46,5.35-8.27,13.65-13.19,24.66-14.63a73.73,73.73,0,0,1,7.78-.46H594a85.53,85.53,0,0,1,20.79-29.76c-6.3-.56-10.92-.7-13.94-.7-2.47,0-3.73.09-3.73.09H597c-17.52.66-34.6,11.29-41.37,25.52Z"/></svg>